<?xml version="1.0" encoding="UTF-8" standalone="no"?>
<!DOCTYPE svg PUBLIC "-//W3C//DTD SVG 1.1//EN" "http://www.w3.org/Graphics/SVG/1.1/DTD/svg11.dtd">
<svg width="100%" height="100%" viewBox="0 0 626 154" version="1.1" xmlns="http://www.w3.org/2000/svg" xmlns:xlink="http://www.w3.org/1999/xlink" xml:space="preserve" xmlns:serif="http://www.serif.com/" style="fill-rule:evenodd;clip-rule:evenodd;stroke-linecap:round;stroke-linejoin:round;stroke-miterlimit:10;">
    <g transform="matrix(4.16667,0,0,4.16667,-224.245,-419.848)">
        <clipPath id="_clip1">
            <rect x="58.969" y="106.378" width="142.978" height="27.098" clip-rule="nonzero"/>
        </clipPath>
        <g clip-path="url(#_clip1)">
            <g id="r" transform="matrix(1,0,0,1,100.392,129.429)">
                <path d="M0,-1.147C0,-1.147 0,-0.64 -1.006,-0.64C-2.012,-0.64 -5.115,-0.657 -7.296,-0.64C-9.477,-0.625 -9.567,0.644 -11.719,0.644C-15.271,0.644 -15.234,-1.147 -15.234,-1.147C-15.234,-1.791 -15.065,-1.791 -13.993,-1.791L-0.41,-1.791C-0.052,-1.791 0,-1.147 0,-1.147Z" style="fill:rgb(167,169,172);fill-rule:nonzero;stroke:rgb(35,31,32);stroke-width:0.38px;"/>
            </g>
            <g transform="matrix(-0.953386,0.301755,0.301755,0.953386,196.451,121.073)">
                <path d="M0.026,-7.177C0.026,-7.177 -0.196,-7.575 -0.522,-7.252C-0.87,-6.916 -0.606,-5.414 0.026,-3.416C0.659,-1.416 1.307,-0.038 1.786,0.038C2.238,0.115 2.19,-0.339 2.19,-0.339" style="fill:white;fill-rule:nonzero;stroke:rgb(35,31,32);stroke-width:0.38px;"/>
            </g>
            <g transform="matrix(-0.963212,0.268742,0.268742,0.963212,195.631,120.881)">
                <path d="M0.017,-6.604C0.017,-6.604 -0.101,-6.97 -0.343,-6.902C-0.692,-6.805 -0.522,-5.11 0.017,-3.177C0.557,-1.243 1.289,0.294 1.637,0.196C1.88,0.129 1.791,-0.244 1.791,-0.244" style="fill:white;fill-rule:nonzero;stroke:rgb(35,31,32);stroke-width:0.38px;"/>
            </g>
            <g transform="matrix(-0.553804,-0.832647,-0.832647,0.553804,68.4567,120.23)">
                <path d="M-2.774,-2.822C-2.774,-2.822 -2.894,-2.833 -3.015,-2.752C-3.561,-2.389 -3.452,-1.267 -2.774,-0.247C-2.096,0.773 -1.104,1.306 -0.557,0.943C-0.41,0.845 -0.304,0.728 -0.304,0.728" style="fill:white;fill-rule:nonzero;stroke:rgb(35,31,32);stroke-width:0.38px;"/>
            </g>
            <g transform="matrix(1,0,0,1,68.6255,125.01)">
                <path d="M0,-2.957C0.516,-2.739 0.918,-2.447 0.922,-2.326C0.929,-2.148 0.764,-0.571 0.771,-0.409C0.778,-0.247 1.109,-0.075 1.207,-0.033C1.272,-0.002 1.33,0 1.406,-0.039C1.497,-0.087 1.812,-0.279 1.805,-0.44C1.798,-0.603 1.625,-2.02 1.619,-2.199C1.615,-2.32 2.252,-2.653 2.775,-2.852" style="fill:white;fill-rule:nonzero;stroke:rgb(35,31,32);stroke-width:0.38px;"/>
            </g>
            <g transform="matrix(0,1,1,0,70.197,118.454)">
                <path d="M2.221,-2.217C1.579,-2.217 1.061,-1.224 1.061,0.002C1.061,1.226 1.579,2.221 2.221,2.221C2.86,2.221 3.377,1.226 3.377,0.002C3.377,-1.224 2.86,-2.217 2.221,-2.217" style="fill:white;fill-rule:nonzero;"/>
            </g>
            <g transform="matrix(0,1,1,0,70.197,118.454)">
                <ellipse cx="2.219" cy="0.002" rx="1.158" ry="2.219" style="fill:none;stroke:rgb(35,31,32);stroke-width:0.38px;"/>
            </g>
            <g transform="matrix(-0.553999,-0.832517,-0.832517,0.553999,84.8785,120.373)">
                <path d="M-3.548,-3.609C-3.548,-3.609 -3.702,-3.624 -3.858,-3.52C-4.556,-3.055 -4.416,-1.621 -3.548,-0.316C-2.679,0.99 -1.411,1.671 -0.713,1.207C-0.525,1.081 -0.387,0.932 -0.387,0.932" style="fill:white;fill-rule:nonzero;stroke:rgb(35,31,32);stroke-width:0.48px;"/>
            </g>
            <g transform="matrix(0,1,1,0,87.108,118.103)">
                <path d="M2.838,-2.839C2.02,-2.839 1.357,-1.569 1.357,-0.001C1.357,1.566 2.02,2.838 2.838,2.838C3.656,2.838 4.32,1.566 4.32,-0.001C4.32,-1.569 3.656,-2.839 2.838,-2.839" style="fill:white;fill-rule:nonzero;"/>
            </g>
            <g transform="matrix(0,1,1,0,87.108,118.103)">
                <ellipse cx="2.839" cy="-0" rx="1.482" ry="2.838" style="fill:none;stroke:rgb(35,31,32);stroke-width:0.48px;"/>
            </g>
            <g transform="matrix(-0.554162,-0.832409,-0.832409,0.554162,63.5772,120.231)">
                <path d="M-2.775,-2.821C-2.775,-2.821 -2.894,-2.833 -3.016,-2.752C-3.562,-2.389 -3.454,-1.269 -2.775,-0.248C-2.096,0.773 -1.103,1.306 -0.557,0.942C-0.409,0.844 -0.303,0.728 -0.303,0.728" style="fill:white;fill-rule:nonzero;stroke:rgb(35,31,32);stroke-width:0.38px;"/>
            </g>
            <g transform="matrix(1,0,0,1,63.7476,125.01)">
                <path d="M0,-2.957C0.515,-2.739 0.917,-2.447 0.923,-2.326C0.929,-2.148 0.765,-0.571 0.771,-0.409C0.779,-0.247 1.109,-0.075 1.207,-0.033C1.272,-0.002 1.33,0 1.405,-0.039C1.497,-0.087 1.812,-0.279 1.806,-0.44C1.798,-0.603 1.625,-2.02 1.618,-2.199C1.614,-2.32 2.251,-2.653 2.774,-2.852" style="fill:white;fill-rule:nonzero;stroke:rgb(35,31,32);stroke-width:0.38px;"/>
            </g>
            <g transform="matrix(0,1,1,0,65.3181,118.454)">
                <path d="M2.221,-2.217C1.579,-2.217 1.061,-1.223 1.061,0.004C1.061,1.229 1.579,2.221 2.221,2.221C2.86,2.221 3.377,1.229 3.377,0.004C3.377,-1.223 2.86,-2.217 2.221,-2.217" style="fill:white;fill-rule:nonzero;"/>
            </g>
            <g transform="matrix(0,1,1,0,65.3181,118.454)">
                <ellipse cx="2.219" cy="0.002" rx="1.158" ry="2.219" style="fill:none;stroke:rgb(35,31,32);stroke-width:0.38px;"/>
            </g>
            <g transform="matrix(1,0,0,1,-20.1206,117.866)">
                <path d="M0,-0.021C0,2.146 0.51,2.841 0.51,2.841L213.96,3.26C213.96,3.26 214.252,2.025 214.252,-0.011C214.252,-2.045 213.96,-3.281 213.96,-3.281L0.51,-2.884C0.51,-2.884 0,-2.187 0,-0.021" style="fill:white;fill-rule:nonzero;"/>
            </g>
            <g transform="matrix(1,0,0,1,-20.1206,117.866)">
                <path d="M0,-0.021C0,2.146 0.51,2.841 0.51,2.841L213.96,3.26C213.96,3.26 214.252,2.025 214.252,-0.011C214.252,-2.045 213.96,-3.281 213.96,-3.281L0.51,-2.884C0.51,-2.884 0,-2.187 0,-0.021Z" style="fill:none;fill-rule:nonzero;stroke:rgb(35,31,32);stroke-width:0.38px;"/>
            </g>
            <g transform="matrix(-0.955883,0.293749,0.293749,0.955883,155.42,121.092)">
                <path d="M0.024,-7.177C0.024,-7.177 -0.208,-7.572 -0.6,-7.233C-1.01,-6.881 -0.592,-5.429 0.024,-3.425C0.64,-1.421 1.11,0.015 1.646,0.077C2.161,0.137 2.131,-0.321 2.131,-0.321" style="fill:white;fill-rule:nonzero;stroke:rgb(35,31,32);stroke-width:0.38px;"/>
            </g>
            <g transform="matrix(-0.953482,0.301449,0.301449,0.953482,154.593,120.692)">
                <path d="M0.023,-6.332C0.023,-6.332 -0.285,-6.781 -0.559,-6.694C-0.959,-6.568 -0.582,-4.928 0.023,-3.014C0.628,-1.1 1.263,0.46 1.662,0.333C1.937,0.246 1.962,-0.197 1.962,-0.197" style="fill:white;fill-rule:nonzero;stroke:rgb(35,31,32);stroke-width:0.38px;"/>
            </g>
            <g transform="matrix(1,0,0,1,120.74,124.255)">
                <path d="M0,-1.714C-0.27,-1.714 -0.509,-1.591 -0.666,-1.397L-0.666,-0.318C-0.509,-0.124 -0.27,0 0,0C0.27,0 0.51,-0.124 0.667,-0.318L0.667,-1.397C0.51,-1.591 0.27,-1.714 0,-1.714" style="fill:white;fill-rule:nonzero;"/>
            </g>
            <g transform="matrix(1,0,0,1,120.74,124.255)">
                <path d="M0,-1.714C-0.27,-1.714 -0.509,-1.591 -0.666,-1.397L-0.666,-0.318C-0.509,-0.124 -0.27,0 0,0C0.27,0 0.51,-0.124 0.667,-0.318L0.667,-1.397C0.51,-1.591 0.27,-1.714 0,-1.714Z" style="fill:none;fill-rule:nonzero;stroke:rgb(35,31,32);stroke-width:0.38px;"/>
            </g>
            <g transform="matrix(-1,0,0,1,217.961,-602.121)">
                <rect x="71.096" y="725.718" width="84.273" height="1.078" style="fill:white;stroke:rgb(35,31,32);stroke-width:0.38px;"/>
            </g>
            <g transform="matrix(-1,0,0,1,249.452,-605.201)">
                <rect x="98.45" y="727.258" width="61.056" height="1.078" style="fill:white;stroke:rgb(35,31,32);stroke-width:0.38px;"/>
            </g>
            <g transform="matrix(1,0,0,1,148.453,124.201)">
                <path d="M0,0.001C0,-0.473 -0.384,-0.856 -0.856,-0.856C-1.126,-0.856 -1.365,-0.732 -1.522,-0.537L-1.522,0.541C-1.365,0.734 -1.126,0.857 -0.856,0.857C-0.384,0.857 0,0.475 0,0.001" style="fill:white;fill-rule:nonzero;"/>
            </g>
            <g transform="matrix(1,0,0,1,148.453,124.201)">
                <path d="M0,0.001C0,-0.473 -0.384,-0.856 -0.856,-0.856C-1.126,-0.856 -1.365,-0.732 -1.522,-0.537L-1.522,0.541C-1.365,0.734 -1.126,0.857 -0.856,0.857C-0.384,0.857 0,0.475 0,0.001Z" style="fill:none;fill-rule:nonzero;stroke:rgb(35,31,32);stroke-width:0.38px;"/>
            </g>
            <g transform="matrix(1,0,0,1,61.1343,124.201)">
                <path d="M0,0.001C0,-0.473 0.382,-0.856 0.855,-0.856C1.125,-0.856 1.365,-0.732 1.521,-0.537L1.521,0.541C1.365,0.734 1.125,0.857 0.855,0.857C0.382,0.857 0,0.475 0,0.001" style="fill:white;fill-rule:nonzero;"/>
            </g>
            <g transform="matrix(1,0,0,1,61.1343,124.201)">
                <path d="M0,0.001C0,-0.473 0.382,-0.856 0.855,-0.856C1.125,-0.856 1.365,-0.732 1.521,-0.537L1.521,0.541C1.365,0.734 1.125,0.857 0.855,0.857C0.382,0.857 0,0.475 0,0.001Z" style="fill:none;fill-rule:nonzero;stroke:rgb(35,31,32);stroke-width:0.38px;"/>
            </g>
            <g transform="matrix(1,0,0,1,135.676,125.058)">
                <path d="M0,-1.714C-0.205,-1.714 -0.388,-1.59 -0.507,-1.395L-0.507,-0.317C-0.388,-0.123 -0.205,0 0,0C0.203,0 0.388,-0.123 0.506,-0.317L0.506,-1.395C0.388,-1.59 0.203,-1.714 0,-1.714" style="fill:white;fill-rule:nonzero;"/>
            </g>
            <g transform="matrix(1,0,0,1,135.676,125.058)">
                <path d="M0,-1.714C-0.205,-1.714 -0.388,-1.59 -0.507,-1.395L-0.507,-0.317C-0.388,-0.123 -0.205,0 0,0C0.203,0 0.388,-0.123 0.506,-0.317L0.506,-1.395C0.388,-1.59 0.203,-1.714 0,-1.714Z" style="fill:none;fill-rule:nonzero;stroke:rgb(35,31,32);stroke-width:0.38px;"/>
            </g>
            <g transform="matrix(1,0,0,1,145.019,125.058)">
                <path d="M0,-1.714C-0.205,-1.714 -0.387,-1.59 -0.508,-1.395L-0.508,-0.317C-0.387,-0.123 -0.205,0 0,0C0.204,0 0.387,-0.123 0.506,-0.317L0.506,-1.395C0.387,-1.59 0.204,-1.714 0,-1.714" style="fill:white;fill-rule:nonzero;"/>
            </g>
            <g transform="matrix(1,0,0,1,145.019,125.058)">
                <path d="M0,-1.714C-0.205,-1.714 -0.387,-1.59 -0.508,-1.395L-0.508,-0.317C-0.387,-0.123 -0.205,0 0,0C0.204,0 0.387,-0.123 0.506,-0.317L0.506,-1.395C0.387,-1.59 0.204,-1.714 0,-1.714Z" style="fill:none;fill-rule:nonzero;stroke:rgb(35,31,32);stroke-width:0.38px;"/>
            </g>
            <g transform="matrix(-1,0,0,1,232.685,-603.599)">
                <rect x="81.683" y="726.457" width="77.823" height="1.078" style="fill:white;stroke:rgb(35,31,32);stroke-width:0.38px;"/>
            </g>
            <g transform="matrix(1,0,0,1,71.6558,123.398)">
                <path d="M0,-0.001C0,-0.474 0.384,-0.857 0.856,-0.857C1.126,-0.857 1.366,-0.734 1.523,-0.54L1.523,0.538C1.366,0.732 1.126,0.856 0.856,0.856C0.384,0.856 0,0.473 0,-0.001" style="fill:white;fill-rule:nonzero;"/>
            </g>
            <g transform="matrix(1,0,0,1,71.6558,123.398)">
                <path d="M0,-0.001C0,-0.474 0.384,-0.857 0.856,-0.857C1.126,-0.857 1.366,-0.734 1.523,-0.54L1.523,0.538C1.366,0.732 1.126,0.856 0.856,0.856C0.384,0.856 0,0.473 0,-0.001Z" style="fill:none;fill-rule:nonzero;stroke:rgb(35,31,32);stroke-width:0.38px;"/>
            </g>
            <g transform="matrix(1,0,0,1,125.236,124.202)">
                <path d="M0,-1.713C-0.204,-1.713 -0.386,-1.59 -0.505,-1.397L-0.505,-0.318C-0.386,-0.124 -0.204,0 0,0C0.206,0 0.388,-0.124 0.509,-0.318L0.509,-1.397C0.388,-1.59 0.206,-1.713 0,-1.713" style="fill:white;fill-rule:nonzero;"/>
            </g>
            <g transform="matrix(1,0,0,1,125.236,124.202)">
                <path d="M0,-1.713C-0.204,-1.713 -0.386,-1.59 -0.505,-1.397L-0.505,-0.318C-0.386,-0.124 -0.204,0 0,0C0.206,0 0.388,-0.124 0.509,-0.318L0.509,-1.397C0.388,-1.59 0.206,-1.713 0,-1.713Z" style="fill:none;fill-rule:nonzero;stroke:rgb(35,31,32);stroke-width:0.38px;"/>
            </g>
            <g transform="matrix(1,0,0,1,143.524,124.202)">
                <path d="M0,-1.713C-0.204,-1.713 -0.388,-1.59 -0.508,-1.397L-0.508,-0.318C-0.388,-0.124 -0.204,0 0,0C0.204,0 0.387,-0.124 0.507,-0.318L0.507,-1.397C0.387,-1.59 0.204,-1.713 0,-1.713" style="fill:white;fill-rule:nonzero;"/>
            </g>
            <g transform="matrix(1,0,0,1,143.524,124.202)">
                <path d="M0,-1.713C-0.204,-1.713 -0.388,-1.59 -0.508,-1.397L-0.508,-0.318C-0.388,-0.124 -0.204,0 0,0C0.204,0 0.387,-0.124 0.507,-0.318L0.507,-1.397C0.387,-1.59 0.204,-1.713 0,-1.713Z" style="fill:none;fill-rule:nonzero;stroke:rgb(35,31,32);stroke-width:0.38px;"/>
            </g>
            <g transform="matrix(-1,0,0,1,311.71,-606.201)">
                <rect x="159.605" y="727.049" width="1.004" height="2.496" style="fill:white;stroke:rgb(35,31,32);stroke-width:0.38px;"/>
            </g>
            <g transform="matrix(-1,0,0,1,303.521,-606.577)">
                <rect x="155.51" y="727.536" width="1.005" height="1.898" style="fill:white;stroke:rgb(35,31,32);stroke-width:0.38px;"/>
            </g>
            <g transform="matrix(1,0,0,1,152.525,123.398)">
                <path d="M0,-0.001C0,-0.474 -0.384,-0.857 -0.856,-0.857C-1.125,-0.857 -1.365,-0.734 -1.522,-0.54L-1.522,0.538C-1.365,0.732 -1.125,0.856 -0.856,0.856C-0.384,0.856 0,0.473 0,-0.001" style="fill:white;fill-rule:nonzero;"/>
            </g>
            <g transform="matrix(1,0,0,1,152.525,123.398)">
                <path d="M0,-0.001C0,-0.474 -0.384,-0.857 -0.856,-0.857C-1.125,-0.857 -1.365,-0.734 -1.522,-0.54L-1.522,0.538C-1.365,0.732 -1.125,0.856 -0.856,0.856C-0.384,0.856 0,0.473 0,-0.001Z" style="fill:none;fill-rule:nonzero;stroke:rgb(35,31,32);stroke-width:0.38px;"/>
            </g>
            <g transform="matrix(1,0,0,1,174.715,116.515)">
                <path d="M0,-2.016C0.273,-2.02 0.347,-2.016 0.516,-1.608C0.68,-1.2 1.181,-0.473 0.786,-0.292C0.395,-0.112 0.144,0.004 -0.005,-0.328C-0.151,-0.661 -0.302,-1.465 -0.302,-1.644C-0.302,-1.822 -0.134,-2.015 0,-2.016" style="fill:white;fill-rule:nonzero;"/>
            </g>
            <g transform="matrix(1,0,0,1,174.715,116.515)">
                <path d="M0,-2.016C0.273,-2.02 0.347,-2.016 0.516,-1.608C0.68,-1.2 1.181,-0.473 0.786,-0.292C0.395,-0.112 0.144,0.004 -0.005,-0.328C-0.151,-0.661 -0.302,-1.465 -0.302,-1.644C-0.302,-1.822 -0.134,-2.015 0,-2.016Z" style="fill:none;fill-rule:nonzero;stroke:rgb(35,31,32);stroke-width:0.38px;"/>
            </g>
            <g transform="matrix(1,0,0,1,175.008,119.803)">
                <path d="M0,-3.354C0.321,-3.416 0.66,-3.415 0.812,-3.354C0.963,-3.294 1.009,-2.511 1.009,-2.2C1.009,-1.888 1.038,-0.088 0.78,-0.013C0.523,0.062 -0.033,-0.23 -0.069,-0.466C-0.105,-0.703 -0.063,-1.945 -0.069,-2.362C-0.074,-2.78 -0.173,-3.32 0,-3.354" style="fill:white;fill-rule:nonzero;"/>
            </g>
            <g transform="matrix(1,0,0,1,175.008,119.803)">
                <path d="M0,-3.354C0.321,-3.416 0.66,-3.415 0.812,-3.354C0.963,-3.294 1.009,-2.511 1.009,-2.2C1.009,-1.888 1.038,-0.088 0.78,-0.013C0.523,0.062 -0.033,-0.23 -0.069,-0.466C-0.105,-0.703 -0.063,-1.945 -0.069,-2.362C-0.074,-2.78 -0.173,-3.32 0,-3.354Z" style="fill:none;fill-rule:nonzero;stroke:rgb(35,31,32);stroke-width:0.38px;"/>
            </g>
            <g transform="matrix(0.554338,0.832292,0.832292,-0.554338,178.932,118.998)">
                <path d="M2.243,-2.204C2.243,-2.204 2.064,-2.221 1.883,-2.1C1.075,-1.562 1.234,0.102 2.243,1.617C3.25,3.13 4.725,3.919 5.533,3.38C5.752,3.235 5.91,3.061 5.91,3.061" style="fill:white;fill-rule:nonzero;stroke:rgb(35,31,32);stroke-width:0.38px;"/>
            </g>
            <g transform="matrix(-1,0,0,1,349.078,-613.271)">
                <rect x="164.53" y="731.293" width="28.522" height="1.078" style="fill:white;stroke:rgb(35,31,32);stroke-width:0.38px;"/>
            </g>
            <g transform="matrix(1,0,0,1,186.072,118.562)">
                <path d="M0,-0.001C0,-0.474 -0.384,-0.857 -0.857,-0.857C-1.125,-0.857 -1.366,-0.733 -1.523,-0.54L-1.523,0.538C-1.366,0.731 -1.125,0.856 -0.857,0.856C-0.384,0.856 0,0.472 0,-0.001" style="fill:white;fill-rule:nonzero;"/>
            </g>
            <g transform="matrix(1,0,0,1,186.072,118.562)">
                <path d="M0,-0.001C0,-0.474 -0.384,-0.857 -0.857,-0.857C-1.125,-0.857 -1.366,-0.733 -1.523,-0.54L-1.523,0.538C-1.366,0.731 -1.125,0.856 -0.857,0.856C-0.384,0.856 0,0.472 0,-0.001Z" style="fill:none;fill-rule:nonzero;stroke:rgb(35,31,32);stroke-width:0.38px;"/>
            </g>
            <g transform="matrix(1,0,0,1,154.502,118.562)">
                <path d="M0,-0.001C0,-0.474 0.385,-0.857 0.858,-0.857C1.127,-0.857 1.366,-0.733 1.523,-0.54L1.523,0.538C1.366,0.731 1.127,0.856 0.858,0.856C0.385,0.856 0,0.472 0,-0.001" style="fill:white;fill-rule:nonzero;"/>
            </g>
            <g transform="matrix(1,0,0,1,154.502,118.562)">
                <path d="M0,-0.001C0,-0.474 0.385,-0.857 0.858,-0.857C1.127,-0.857 1.366,-0.733 1.523,-0.54L1.523,0.538C1.366,0.731 1.127,0.856 0.858,0.856C0.385,0.856 0,0.472 0,-0.001Z" style="fill:none;fill-rule:nonzero;stroke:rgb(35,31,32);stroke-width:0.38px;"/>
            </g>
            <g transform="matrix(1,0,0,1,174.122,119.419)">
                <path d="M0,-1.714C-0.27,-1.714 -0.51,-1.59 -0.667,-1.397L-0.667,-0.318C-0.51,-0.125 -0.27,0 0,0C0.27,0 0.51,-0.125 0.667,-0.318L0.667,-1.397C0.51,-1.59 0.27,-1.714 0,-1.714" style="fill:white;fill-rule:nonzero;"/>
            </g>
            <g transform="matrix(1,0,0,1,174.122,119.419)">
                <path d="M0,-1.714C-0.27,-1.714 -0.51,-1.59 -0.667,-1.397L-0.667,-0.318C-0.51,-0.125 -0.27,0 0,0C0.27,0 0.51,-0.125 0.667,-0.318L0.667,-1.397C0.51,-1.59 0.27,-1.714 0,-1.714Z" style="fill:none;fill-rule:nonzero;stroke:rgb(35,31,32);stroke-width:0.38px;"/>
            </g>
            <g transform="matrix(1,0,0,1,88.3696,124.14)">
                <path d="M0,-1.713C-0.271,-1.713 -0.51,-1.591 -0.667,-1.397L-0.667,-0.317C-0.51,-0.123 -0.271,0 0,0C0.268,0 0.508,-0.123 0.665,-0.317L0.665,-1.397C0.508,-1.591 0.268,-1.713 0,-1.713" style="fill:white;fill-rule:nonzero;"/>
            </g>
            <g transform="matrix(1,0,0,1,88.3696,124.14)">
                <path d="M0,-1.713C-0.271,-1.713 -0.51,-1.591 -0.667,-1.397L-0.667,-0.317C-0.51,-0.123 -0.271,0 0,0C0.268,0 0.508,-0.123 0.665,-0.317L0.665,-1.397C0.508,-1.591 0.268,-1.713 0,-1.713Z" style="fill:none;fill-rule:nonzero;stroke:rgb(35,31,32);stroke-width:0.38px;"/>
            </g>
            <g transform="matrix(-1,0,0,1,228.859,-605.953)">
                <rect x="112.502" y="727.634" width="12.359" height="1.078" style="fill:white;stroke:rgb(35,31,32);stroke-width:0.38px;"/>
            </g>
            <g transform="matrix(1,0,0,1,102.475,122.22)">
                <path d="M0,0C0,-0.473 0.385,-0.856 0.856,-0.856C1.126,-0.856 1.366,-0.733 1.522,-0.539L1.522,0.539C1.366,0.732 1.126,0.856 0.856,0.856C0.385,0.856 0,0.473 0,0" style="fill:white;fill-rule:nonzero;"/>
            </g>
            <g transform="matrix(1,0,0,1,102.475,122.22)">
                <path d="M0,0C0,-0.473 0.385,-0.856 0.856,-0.856C1.126,-0.856 1.366,-0.733 1.522,-0.539L1.522,0.539C1.366,0.732 1.126,0.856 0.856,0.856C0.385,0.856 0,0.473 0,0Z" style="fill:none;fill-rule:nonzero;stroke:rgb(35,31,32);stroke-width:0.38px;"/>
            </g>
            <g transform="matrix(1,0,0,1,118.002,122.22)">
                <path d="M0,0C0,-0.473 -0.384,-0.856 -0.858,-0.856C-1.126,-0.856 -1.365,-0.733 -1.523,-0.539L-1.523,0.539C-1.365,0.732 -1.126,0.856 -0.858,0.856C-0.384,0.856 0,0.473 0,0" style="fill:white;fill-rule:nonzero;"/>
            </g>
            <g transform="matrix(1,0,0,1,118.002,122.22)">
                <path d="M0,0C0,-0.473 -0.384,-0.856 -0.858,-0.856C-1.126,-0.856 -1.365,-0.733 -1.523,-0.539L-1.523,0.539C-1.365,0.732 -1.126,0.856 -0.858,0.856C-0.384,0.856 0,0.473 0,0Z" style="fill:none;fill-rule:nonzero;stroke:rgb(35,31,32);stroke-width:0.38px;"/>
            </g>
            <g transform="matrix(1,0,0,1,163.012,119.419)">
                <path d="M0,-1.714C-0.27,-1.714 -0.51,-1.59 -0.668,-1.397L-0.668,-0.318C-0.51,-0.125 -0.27,0 0,0C0.27,0 0.508,-0.125 0.665,-0.318L0.665,-1.397C0.508,-1.59 0.27,-1.714 0,-1.714" style="fill:white;fill-rule:nonzero;"/>
            </g>
            <g transform="matrix(1,0,0,1,163.012,119.419)">
                <path d="M0,-1.714C-0.27,-1.714 -0.51,-1.59 -0.668,-1.397L-0.668,-0.318C-0.51,-0.125 -0.27,0 0,0C0.27,0 0.508,-0.125 0.665,-0.318L0.665,-1.397C0.508,-1.59 0.27,-1.714 0,-1.714Z" style="fill:none;fill-rule:nonzero;stroke:rgb(35,31,32);stroke-width:0.38px;"/>
            </g>
            <g transform="matrix(1,0,0,1,183.657,117.698)">
                <path d="M0,3.529C0,3.529 0.103,3.069 -0.279,2.89C-0.903,2.6 -1.025,2.403 -1.025,2.253C-1.025,2.034 -0.608,1.251 -0.608,0.524C-0.608,0.324 -0.931,0.1 -1.027,0.044C-1.09,0.003 -1.147,0 -1.225,0.044C-1.319,0.1 -1.643,0.324 -1.643,0.524C-1.643,0.724 -1.733,1.77 -1.875,2.064C-1.94,2.2 -2.644,2.481 -3.298,2.703C-3.747,2.853 -3.778,3.154 -3.842,3.365" style="fill:white;fill-rule:nonzero;stroke:rgb(35,31,32);stroke-width:0.38px;"/>
            </g>
            <g transform="matrix(0.554579,0.832131,0.832131,-0.554579,168.057,118.999)">
                <path d="M2.241,-2.203C2.241,-2.203 2.063,-2.22 1.882,-2.1C1.074,-1.561 1.234,0.104 2.241,1.616C3.25,3.129 4.725,3.918 5.533,3.379C5.752,3.233 5.911,3.06 5.911,3.06" style="fill:white;fill-rule:nonzero;stroke:rgb(35,31,32);stroke-width:0.38px;"/>
            </g>
            <g transform="matrix(1,0,0,1,172.784,117.698)">
                <path d="M0,3.529C0,3.529 0.102,3.069 -0.28,2.89C-0.905,2.6 -1.244,2.403 -1.244,2.253C-1.244,2.034 -1.049,0.724 -1.049,0.524C-1.049,0.324 -1.373,0.1 -1.466,0.044C-1.532,0.003 -1.588,0 -1.665,0.044C-1.76,0.1 -2.083,0.324 -2.083,0.524C-2.083,0.724 -2.097,1.844 -2.097,2.064C-2.097,2.215 -2.646,2.481 -3.298,2.703C-3.747,2.853 -3.781,3.154 -3.842,3.365" style="fill:white;fill-rule:nonzero;stroke:rgb(35,31,32);stroke-width:0.38px;"/>
            </g>
            <g id="n" transform="matrix(1,0,0,1,160.12,117.429)">
                <path d="M0,6.825C2.652,6.825 3.136,4.994 3.703,4.994C4.082,4.994 4.72,5.105 5.1,5.105C5.476,5.105 5.595,4.876 5.698,4.414C5.746,4.199 6.223,0.723 6.223,0.523C6.223,0.323 5.897,0.101 5.805,0.044C5.74,0.002 5.684,0 5.605,0.044C5.509,0.101 5.186,0.323 5.186,0.523C5.186,0.723 4.854,3.902 4.854,4.123C4.854,4.271 4.72,4.414 3.941,4.414L-1.045,4.414C-1.541,4.414 -1.778,4.19 -1.943,4.215C-2.107,4.237 -2.132,4.47 -2.132,4.791C-2.132,5.112 -2.477,6.825 0,6.825" style="fill:rgb(167,169,172);fill-rule:nonzero;"/>
            </g>
            <g transform="matrix(1,0,0,1,160.12,117.429)">
                <path d="M0,6.825C2.652,6.825 3.136,4.994 3.703,4.994C4.082,4.994 4.72,5.105 5.1,5.105C5.476,5.105 5.595,4.876 5.698,4.414C5.746,4.199 6.223,0.723 6.223,0.523C6.223,0.323 5.897,0.101 5.805,0.044C5.74,0.002 5.684,0 5.605,0.044C5.509,0.101 5.186,0.323 5.186,0.523C5.186,0.723 4.854,3.902 4.854,4.123C4.854,4.271 4.72,4.414 3.941,4.414L-1.045,4.414C-1.541,4.414 -1.778,4.19 -1.943,4.215C-2.107,4.237 -2.132,4.47 -2.132,4.791C-2.132,5.112 -2.477,6.825 0,6.825Z" style="fill:none;fill-rule:nonzero;stroke:rgb(35,31,32);stroke-width:0.38px;"/>
            </g>
            <g id="m" transform="matrix(1,0,0,1,162.76,116.006)">
                <path d="M0,5.496C0,5.496 0.764,5.442 0.917,5.442C1.271,5.442 1.245,5.496 1.583,5.496C2.067,5.496 1.992,5.409 2.04,5.222C2.089,5.026 2.288,2.953 2.332,2.699C2.37,2.472 2.386,2.377 2.379,2.219C2.368,1.968 2.287,0.665 2.242,0.434C2.194,0.204 1.869,-0.021 1.775,-0.076C1.713,-0.118 1.665,-0.116 1.608,-0.057C1.541,0.018 1.271,0.309 1.318,0.54C1.363,0.77 1.551,2.052 1.551,2.311C1.551,2.483 1.561,2.472 1.535,2.944C1.513,3.416 1.253,4.528 1.228,4.67C1.206,4.81 0.302,4.72 0.122,4.72C-0.058,4.72 -0.085,4.126 -0.734,4.126L-3.355,4.126C-3.874,4.126 -4.424,4.172 -4.424,4.81C-4.424,5.448 -4.207,5.614 -3.593,5.614L-0.826,5.614C-0.354,5.614 -0.251,5.496 0,5.496Z" style="fill:rgb(167,169,172);fill-rule:nonzero;stroke:rgb(35,31,32);stroke-width:0.38px;"/>
            </g>
            <g transform="matrix(-0.589169,0.80801,0.80801,0.589169,162.87,113.798)">
                <path d="M4.174,-4.295C4.174,-4.295 4.363,-4.297 4.558,-4.155C5.417,-3.529 5.246,-1.83 4.174,-0.36C3.103,1.11 1.538,1.791 0.679,1.165C0.445,0.995 0.277,0.803 0.277,0.803" style="fill:white;fill-rule:nonzero;stroke:rgb(35,31,32);stroke-width:0.38px;"/>
            </g>
            <g transform="matrix(1,0,0,1,162.258,119.569)">
                <path d="M0,-3.961C0,-3.961 0.102,-3.444 -0.28,-3.245C-0.903,-2.919 -1.245,-2.696 -1.245,-2.529C-1.245,-2.283 -1.048,-0.814 -1.048,-0.59C-1.048,-0.365 -1.37,-0.113 -1.468,-0.051C-1.529,-0.004 -1.589,0 -1.665,-0.051C-1.76,-0.113 -2.083,-0.365 -2.083,-0.59C-2.083,-0.814 -2.096,-2.071 -2.096,-2.318C-2.096,-2.485 -2.646,-2.786 -3.298,-3.034C-3.747,-3.203 -3.781,-3.541 -3.843,-3.778" style="fill:white;fill-rule:nonzero;stroke:rgb(35,31,32);stroke-width:0.38px;"/>
            </g>
            <g id="l" transform="matrix(1,0,0,1,157.732,124.099)">
                <path d="M0,-6.341C0.119,-6.512 0.128,-6.499 0.187,-6.569C0.243,-6.639 0.337,-6.691 0.465,-6.496C0.591,-6.302 0.642,-6.129 0.604,-5.839C0.572,-5.55 0.43,-4.658 0.239,-3.953C0.05,-3.248 0.026,-2.181 0.026,-1.372C0.026,-0.562 -0.195,0.35 -1.62,0.35C-3.042,0.35 -3.853,-0.482 -3.853,-1.235C-3.853,-1.986 -3.298,-2.936 -2.175,-3.375C-1.052,-3.814 -0.584,-3.428 -0.3,-4.139C-0.022,-4.833 -0.116,-5.412 -0.116,-5.677C-0.116,-5.944 -0.06,-6.259 0,-6.341" style="fill:rgb(167,169,172);fill-rule:nonzero;"/>
            </g>
            <g transform="matrix(1,0,0,1,157.732,124.099)">
                <path d="M0,-6.341C0.119,-6.512 0.128,-6.499 0.187,-6.569C0.243,-6.639 0.337,-6.691 0.465,-6.496C0.591,-6.302 0.642,-6.129 0.604,-5.839C0.572,-5.55 0.43,-4.658 0.239,-3.953C0.05,-3.248 0.026,-2.181 0.026,-1.372C0.026,-0.562 -0.195,0.35 -1.62,0.35C-3.042,0.35 -3.853,-0.482 -3.853,-1.235C-3.853,-1.986 -3.298,-2.936 -2.175,-3.375C-1.052,-3.814 -0.584,-3.428 -0.3,-4.139C-0.022,-4.833 -0.116,-5.412 -0.116,-5.677C-0.116,-5.944 -0.06,-6.259 0,-6.341Z" style="fill:none;fill-rule:nonzero;stroke:rgb(35,31,32);stroke-width:0.38px;"/>
            </g>
            <g id="p" transform="matrix(0,-1,-1,0,181.519,119.243)">
                <path d="M-3.292,-3.293C-4.241,-3.293 -5.012,-1.819 -5.012,-0.001C-5.012,1.818 -4.241,3.292 -3.292,3.292C-2.342,3.292 -1.573,1.818 -1.573,-0.001C-1.573,-1.819 -2.342,-3.293 -3.292,-3.293" style="fill:rgb(167,169,172);fill-rule:nonzero;"/>
            </g>
            <g transform="matrix(0,-1,-1,0,181.519,119.243)">
                <ellipse cx="-3.292" cy="-0.001" rx="1.719" ry="3.293" style="fill:none;stroke:rgb(35,31,32);stroke-width:0.38px;"/>
            </g>
            <g transform="matrix(0,-1,-1,0,181.52,120.818)">
                <ellipse cx="-2.045" cy="0" rx="1.02" ry="2.045" style="fill:none;stroke:rgb(35,31,32);stroke-width:0.38px;"/>
            </g>
            <g id="o" transform="matrix(0,-1,-1,0,170.645,119.243)">
                <path d="M-3.292,-3.292C-4.241,-3.292 -5.012,-1.818 -5.012,0.001C-5.012,1.817 -4.241,3.292 -3.292,3.292C-2.342,3.292 -1.573,1.817 -1.573,0.001C-1.573,-1.818 -2.342,-3.292 -3.292,-3.292" style="fill:rgb(167,169,172);fill-rule:nonzero;"/>
            </g>
            <g transform="matrix(0,-1,-1,0,170.645,119.243)">
                <ellipse cx="-3.292" cy="-0" rx="1.719" ry="3.292" style="fill:none;stroke:rgb(35,31,32);stroke-width:0.38px;"/>
            </g>
            <g transform="matrix(0,-1,-1,0,170.645,120.816)">
                <ellipse cx="-2.047" cy="0" rx="1.02" ry="2.047" style="fill:none;stroke:rgb(35,31,32);stroke-width:0.38px;"/>
            </g>
            <g id="k" transform="matrix(0,-1,-1,0,160.119,110.85)">
                <path d="M-3.292,-3.292C-2.227,-3.292 -1.363,-1.819 -1.363,-0C-1.363,1.817 -2.227,3.292 -3.292,3.292C-4.357,3.292 -5.222,1.817 -5.222,-0C-5.222,-1.819 -4.357,-3.292 -3.292,-3.292" style="fill:rgb(167,169,172);fill-rule:nonzero;"/>
            </g>
            <g transform="matrix(0,-1,-1,0,160.119,110.85)">
                <ellipse cx="-3.292" cy="-0" rx="1.929" ry="3.292" style="fill:none;stroke:rgb(35,31,32);stroke-width:0.38px;"/>
            </g>
            <g transform="matrix(0,-1,-1,0,160.12,111.727)">
                <ellipse cx="-2.046" cy="0" rx="1.146" ry="2.046" style="fill:none;stroke:rgb(35,31,32);stroke-width:0.38px;"/>
            </g>
            <g transform="matrix(1,0,0,1,151.638,124.31)">
                <path d="M0,-3.428C0,-3.428 -0.458,-3.068 -0.681,-2.703C-0.903,-2.34 -1.015,-2.278 -0.97,-1.64C-0.926,-1.001 -0.926,-0.49 -1.081,-0.343C-1.238,-0.194 -1.481,0 -1.594,0C-1.704,0 -1.95,-0.194 -2.106,-0.343C-2.261,-0.49 -2.261,-1.001 -2.217,-1.64C-2.172,-2.278 -2.283,-2.34 -2.506,-2.703C-2.729,-3.068 -3.186,-3.428 -3.186,-3.428" style="fill:white;fill-rule:nonzero;stroke:rgb(35,31,32);stroke-width:0.38px;"/>
            </g>
            <g id="j" transform="matrix(0,-1,-1,0,150.119,114.878)">
                <path d="M-3.224,-3.225C-5.005,-3.225 -6.449,-1.782 -6.449,-0C-6.449,1.781 -5.005,3.224 -3.224,3.224C-1.444,3.224 0,1.781 0,-0C0,-1.782 -1.444,-3.225 -3.224,-3.225" style="fill:rgb(167,169,172);fill-rule:nonzero;"/>
            </g>
            <g transform="matrix(0,-1,-1,0,150.119,114.878)">
                <circle cx="-3.225" cy="-0.001" r="3.225" style="fill:none;stroke:rgb(35,31,32);stroke-width:0.38px;"/>
            </g>
            <g transform="matrix(0,-1,-1,0,150.121,116.376)">
                <ellipse cx="-1.725" cy="0" rx="1.727" ry="1.725" style="fill:none;stroke:rgb(35,31,32);stroke-width:0.38px;"/>
            </g>
            <g transform="matrix(1,0,0,1,142.092,124.31)">
                <path d="M0,-3.428C0,-3.428 -0.456,-3.068 -0.68,-2.703C-0.902,-2.34 -1.015,-2.278 -0.97,-1.64C-0.925,-1.001 -0.925,-0.49 -1.081,-0.343C-1.235,-0.194 -1.48,0 -1.593,0C-1.703,0 -1.949,-0.194 -2.104,-0.343C-2.26,-0.49 -2.26,-1.001 -2.215,-1.64C-2.171,-2.278 -2.281,-2.34 -2.506,-2.703C-2.727,-3.068 -3.186,-3.428 -3.186,-3.428" style="fill:white;fill-rule:nonzero;stroke:rgb(35,31,32);stroke-width:0.38px;"/>
            </g>
            <g id="i" transform="matrix(0,-1,-1,0,140.574,114.878)">
                <path d="M-3.224,-3.225C-5.005,-3.225 -6.449,-1.782 -6.449,-0C-6.449,1.78 -5.005,3.224 -3.224,3.224C-1.444,3.224 0,1.78 0,-0C0,-1.782 -1.444,-3.225 -3.224,-3.225" style="fill:rgb(167,169,172);fill-rule:nonzero;"/>
            </g>
            <g transform="matrix(0,-1,-1,0,140.574,114.878)">
                <circle cx="-3.225" cy="-0.001" r="3.225" style="fill:none;stroke:rgb(35,31,32);stroke-width:0.38px;"/>
            </g>
            <g transform="matrix(5.31993e-20,-0.999131,-1,5.31993e-20,140.575,116.379)">
                <ellipse cx="-1.725" cy="0" rx="1.727" ry="1.725" style="fill:none;stroke:rgb(35,31,32);stroke-width:0.38px;"/>
            </g>
            <g transform="matrix(1,0,0,1,133.116,124.31)">
                <path d="M0,-3.428C0,-3.428 -0.456,-3.068 -0.681,-2.703C-0.902,-2.34 -1.014,-2.278 -0.97,-1.64C-0.925,-1.001 -0.925,-0.49 -1.081,-0.343C-1.235,-0.194 -1.481,0 -1.592,0C-1.703,0 -1.947,-0.194 -2.104,-0.343C-2.26,-0.49 -2.26,-1.001 -2.216,-1.64C-2.171,-2.278 -2.282,-2.34 -2.506,-2.703C-2.727,-3.068 -3.184,-3.428 -3.184,-3.428" style="fill:white;fill-rule:nonzero;stroke:rgb(35,31,32);stroke-width:0.38px;"/>
            </g>
            <g id="h" transform="matrix(0,-1,-1,0,131.599,114.878)">
                <path d="M-3.224,-3.225C-5.005,-3.225 -6.449,-1.781 -6.449,0.001C-6.449,1.781 -5.005,3.224 -3.224,3.224C-1.444,3.224 0.001,1.781 0.001,0.001C0.001,-1.781 -1.444,-3.225 -3.224,-3.225" style="fill:rgb(167,169,172);fill-rule:nonzero;"/>
            </g>
            <g transform="matrix(0,-1,-1,0,131.599,114.878)">
                <ellipse cx="-3.224" cy="-0.001" rx="3.225" ry="3.224" style="fill:none;stroke:rgb(35,31,32);stroke-width:0.38px;"/>
            </g>
            <g transform="matrix(0,-1,-1,0,131.599,116.376)">
                <ellipse cx="-1.725" cy="0" rx="1.727" ry="1.725" style="fill:none;stroke:rgb(35,31,32);stroke-width:0.38px;"/>
            </g>
            <g transform="matrix(1,0,0,1,124.538,124.31)">
                <path d="M0,-3.428C0,-3.428 -0.458,-3.068 -0.681,-2.703C-0.904,-2.34 -1.014,-2.278 -0.971,-1.64C-0.926,-1.001 -0.926,-0.49 -1.08,-0.343C-1.236,-0.194 -1.482,0 -1.594,0C-1.705,0 -1.949,-0.194 -2.104,-0.343C-2.261,-0.49 -2.261,-1.001 -2.216,-1.64C-2.171,-2.278 -2.283,-2.34 -2.506,-2.703C-2.729,-3.068 -3.185,-3.428 -3.185,-3.428" style="fill:white;fill-rule:nonzero;stroke:rgb(35,31,32);stroke-width:0.38px;"/>
            </g>
            <g id="g" transform="matrix(0,-1,-1,0,123.019,114.879)">
                <path d="M-3.223,-3.224C-5.004,-3.224 -6.448,-1.781 -6.448,-0.001C-6.448,1.781 -5.004,3.223 -3.223,3.223C-1.443,3.223 0.001,1.781 0.001,-0.001C0.001,-1.781 -1.443,-3.224 -3.223,-3.224" style="fill:rgb(167,169,172);fill-rule:nonzero;"/>
            </g>
            <g transform="matrix(0,-1,-1,0,123.019,114.879)">
                <ellipse cx="-3.224" cy="-0.001" rx="3.225" ry="3.224" style="fill:none;stroke:rgb(35,31,32);stroke-width:0.38px;"/>
            </g>
            <g transform="matrix(0,-1,-1,0,123.02,116.375)">
                <ellipse cx="-1.726" cy="0" rx="1.727" ry="1.726" style="fill:none;stroke:rgb(35,31,32);stroke-width:0.38px;"/>
            </g>
            <g transform="matrix(1,0,0,1,101.543,124.31)">
                <path d="M0,-3.428C0,-3.428 -0.457,-3.068 -0.68,-2.703C-0.902,-2.34 -1.014,-2.278 -0.97,-1.64C-0.925,-1.001 -0.925,-0.49 -1.079,-0.343C-1.235,-0.194 -1.48,0 -1.593,0C-1.704,0 -1.949,-0.194 -2.104,-0.343C-2.26,-0.49 -2.26,-1.001 -2.216,-1.64C-2.171,-2.278 -2.282,-2.34 -2.505,-2.703C-2.729,-3.068 -3.185,-3.428 -3.185,-3.428" style="fill:white;fill-rule:nonzero;stroke:rgb(35,31,32);stroke-width:0.38px;"/>
            </g>
            <g id="d" transform="matrix(0,-1,-1,0,100.025,114.878)">
                <path d="M-3.224,-3.225C-5.005,-3.225 -6.449,-1.781 -6.449,-0C-6.449,1.781 -5.005,3.224 -3.224,3.224C-1.444,3.224 0,1.781 0,-0C0,-1.781 -1.444,-3.225 -3.224,-3.225" style="fill:rgb(167,169,172);fill-rule:nonzero;"/>
            </g>
            <g transform="matrix(0,-1,-1,0,100.025,114.878)">
                <circle cx="-3.225" cy="-0.001" r="3.225" style="fill:none;stroke:rgb(35,31,32);stroke-width:0.38px;"/>
            </g>
            <g transform="matrix(0,-1,-1,0,100.027,116.376)">
                <ellipse cx="-1.725" cy="0" rx="1.727" ry="1.725" style="fill:none;stroke:rgb(35,31,32);stroke-width:0.38px;"/>
            </g>
            <g id="t" transform="matrix(1,0,0,1,145.468,117.826)">
                <path d="M0,5.032C0,5.032 0.023,4.499 0.057,4.1C0.077,3.878 0.187,3.637 0.4,3.206C0.616,2.775 0.956,1.63 0.956,0.982C0.956,0.336 0.679,0 0.057,0C-0.564,0 -0.957,0.274 -0.957,1.229C-0.957,1.938 -0.647,2.869 -0.647,3.501C-0.647,4.131 -0.957,4.622 -0.957,5.032" style="fill:rgb(167,169,172);fill-rule:nonzero;stroke:rgb(35,31,32);stroke-width:0.38px;"/>
            </g>
            <g id="s" transform="matrix(1,0,0,1,136.127,117.826)">
                <path d="M0,5.032C0,5.032 0.022,4.499 0.056,4.1C0.076,3.878 0.185,3.637 0.399,3.206C0.616,2.775 0.956,1.63 0.956,0.982C0.956,0.336 0.677,0 0.056,0C-0.565,0 -0.957,0.274 -0.957,1.229C-0.957,1.938 -0.648,2.869 -0.648,3.501C-0.648,4.131 -0.957,4.622 -0.957,5.032" style="fill:rgb(167,169,172);fill-rule:nonzero;stroke:rgb(35,31,32);stroke-width:0.38px;"/>
            </g>
            <g transform="matrix(1,0,0,1,134.315,125.65)">
                <path d="M0,-3.161C-0.205,-3.161 -0.387,-3.038 -0.507,-2.845L-0.507,-0.319C-0.387,-0.125 -0.205,0 0,0C0.205,0 0.388,-0.125 0.509,-0.319L0.509,-2.845C0.388,-3.038 0.205,-3.161 0,-3.161" style="fill:white;fill-rule:nonzero;"/>
            </g>
            <g transform="matrix(1,0,0,1,134.315,125.65)">
                <path d="M0,-3.161C-0.205,-3.161 -0.387,-3.038 -0.507,-2.845L-0.507,-0.319C-0.387,-0.125 -0.205,0 0,0C0.205,0 0.388,-0.125 0.509,-0.319L0.509,-2.845C0.388,-3.038 0.205,-3.161 0,-3.161Z" style="fill:none;fill-rule:nonzero;stroke:rgb(35,31,32);stroke-width:0.38px;"/>
            </g>
            <g transform="matrix(1,0,0,1,121.758,125.65)">
                <path d="M0,-3.161C-0.203,-3.161 -0.386,-3.038 -0.506,-2.845L-0.506,-0.319C-0.386,-0.125 -0.203,0 0,0C0.205,0 0.389,-0.125 0.508,-0.319L0.508,-2.845C0.389,-3.038 0.205,-3.161 0,-3.161" style="fill:white;fill-rule:nonzero;"/>
            </g>
            <g transform="matrix(1,0,0,1,121.758,125.65)">
                <path d="M0,-3.161C-0.203,-3.161 -0.386,-3.038 -0.506,-2.845L-0.506,-0.319C-0.386,-0.125 -0.203,0 0,0C0.205,0 0.389,-0.125 0.508,-0.319L0.508,-2.845C0.389,-3.038 0.205,-3.161 0,-3.161Z" style="fill:none;fill-rule:nonzero;stroke:rgb(35,31,32);stroke-width:0.38px;"/>
            </g>
            <g transform="matrix(1,0,0,1,122.266,125.331)">
                <path d="M0,0L11.542,0" style="fill:none;fill-rule:nonzero;stroke:rgb(35,31,32);stroke-width:0.38px;"/>
            </g>
            <g transform="matrix(1,0,0,1,121.758,115.616)">
                <path d="M0,6.441C0,6.441 -0.409,5.817 -1.19,5.195C-1.974,4.574 -2.238,3.813 -2.238,3.262L-2.238,0.759C-2.238,0.402 -2.378,0.325 -2.532,0.17C-2.688,0.014 -2.889,0 -3.051,0.17C-3.326,0.464 -3.345,0.463 -3.345,0.965L-3.345,2.778C-3.345,3.105 -3.223,3.659 -2.877,4.297C-2.532,4.935 -2.082,5.195 -1.685,5.644C-1.289,6.093 -1.019,6.438 -1.019,6.438" style="fill:white;fill-rule:nonzero;stroke:rgb(35,31,32);stroke-width:0.38px;"/>
            </g>
            <g transform="matrix(1,0,0,1,118.508,121.533)">
                <path d="M0,1.325C0,1.966 -0.005,2.253 0.109,2.434C0.256,2.669 0.355,2.777 0.467,2.777C0.577,2.777 0.758,2.519 0.913,2.371C1.07,2.221 1.024,1.899 1.024,1.26C1.024,1.128 1.6,1.123 1.971,1.123L7.147,1.123C7.794,1.123 8.779,0.039 8.779,-0.509C8.779,-1.055 8.173,-1.452 7.699,-1.452C7.226,-1.452 6.979,-1.221 6.838,-0.541C6.717,0.038 6.395,0.383 6.237,0.443C6.08,0.503 5.709,0.538 5.141,0.538L1.962,0.538C1.265,0.538 0,0.725 0,1.325" style="fill:white;fill-rule:nonzero;"/>
            </g>
            <g transform="matrix(1,0,0,1,118.508,121.533)">
                <path d="M0,1.325C0,1.966 -0.005,2.253 0.109,2.434C0.256,2.669 0.355,2.777 0.467,2.777C0.577,2.777 0.758,2.519 0.913,2.371C1.07,2.221 1.024,1.899 1.024,1.26C1.024,1.128 1.6,1.123 1.971,1.123L7.147,1.123C7.794,1.123 8.779,0.039 8.779,-0.509C8.779,-1.055 8.173,-1.452 7.699,-1.452C7.226,-1.452 6.979,-1.221 6.838,-0.541C6.717,0.038 6.395,0.383 6.237,0.443C6.08,0.503 5.709,0.538 5.141,0.538L1.962,0.538C1.265,0.538 0,0.725 0,1.325Z" style="fill:none;fill-rule:nonzero;stroke:rgb(35,31,32);stroke-width:0.38px;"/>
            </g>
            <g id="q" transform="matrix(1,0,0,1,92.8325,129.383)">
                <path d="M0,-2.567L-5.804,-2.567C-6.843,-2.567 -7.52,-2.504 -7.806,-2.392C-8.094,-2.284 -8.682,-1.653 -8.904,-0.596C-9.161,0.646 -9.611,1.067 -10.476,1.067C-11.343,1.067 -12.448,0.344 -12.448,-0.656C-12.448,-1.658 -10.649,-3.634 -9.471,-3.634L-0.016,-3.634C0.462,-3.634 0.804,-2.567 0,-2.567Z" style="fill:rgb(167,169,172);fill-rule:nonzero;stroke:rgb(35,31,32);stroke-width:0.38px;"/>
            </g>
            <g transform="matrix(1,0,0,1,117.24,123.568)">
                <path d="M0,-4.802C0,-4.802 -0.864,-3.686 -1.087,-3.323C-1.31,-2.958 -1.458,-2.896 -1.418,-2.256C-1.374,-1.618 -1.374,-0.491 -1.521,-0.342C-1.666,-0.194 -1.896,0 -2,0C-2.104,0 -2.333,-0.194 -2.479,-0.342C-2.625,-0.491 -2.625,-1.618 -2.581,-2.256C-2.541,-2.896 -2.689,-2.958 -2.913,-3.323C-3.134,-3.686 -3.998,-4.802 -3.998,-4.802" style="fill:white;fill-rule:nonzero;stroke:rgb(35,31,32);stroke-width:0.38px;"/>
            </g>
            <g id="f" transform="matrix(0,-1,-1,0,115.317,113.14)">
                <path d="M-3.225,-3.223C-5.005,-3.223 -6.448,-1.78 -6.448,0.002C-6.448,1.783 -5.005,3.225 -3.225,3.225C-1.443,3.225 0,1.783 0,0.002C0,-1.78 -1.443,-3.223 -3.225,-3.223" style="fill:rgb(167,169,172);fill-rule:nonzero;"/>
            </g>
            <g transform="matrix(0,-1,-1,0,115.317,113.14)">
                <circle cx="-3.224" cy="0.001" r="3.224" style="fill:none;stroke:rgb(35,31,32);stroke-width:0.38px;"/>
            </g>
            <g transform="matrix(0,-1,-1,0,115.316,114.637)">
                <ellipse cx="-1.726" cy="0.002" rx="1.727" ry="1.726" style="fill:none;stroke:rgb(35,31,32);stroke-width:0.38px;"/>
            </g>
            <g transform="matrix(1,0,0,1,109.368,123.568)">
                <path d="M0,-4.802C0,-4.802 -0.863,-3.686 -1.087,-3.323C-1.31,-2.958 -1.459,-2.896 -1.416,-2.256C-1.375,-1.618 -1.375,-0.491 -1.52,-0.342C-1.666,-0.194 -1.895,0 -2,0C-2.104,0 -2.333,-0.194 -2.478,-0.342C-2.624,-0.491 -2.624,-1.618 -2.582,-2.256C-2.54,-2.896 -2.688,-2.958 -2.912,-3.323C-3.135,-3.686 -3.998,-4.802 -3.998,-4.802" style="fill:white;fill-rule:nonzero;stroke:rgb(35,31,32);stroke-width:0.38px;"/>
            </g>
            <g id="e" transform="matrix(0,-1,-1,0,107.444,113.14)">
                <path d="M-3.225,-3.223C-5.005,-3.223 -6.448,-1.78 -6.448,0C-6.448,1.782 -5.005,3.225 -3.225,3.225C-1.443,3.225 0,1.782 0,0C0,-1.78 -1.443,-3.223 -3.225,-3.223" style="fill:rgb(167,169,172);fill-rule:nonzero;"/>
            </g>
            <g transform="matrix(0,-1,-1,0,107.444,113.14)">
                <circle cx="-3.224" cy="0.001" r="3.224" style="fill:none;stroke:rgb(35,31,32);stroke-width:0.38px;"/>
            </g>
            <g transform="matrix(0,-1,-1,0,107.445,114.638)">
                <ellipse cx="-1.725" cy="0.002" rx="1.727" ry="1.725" style="fill:none;stroke:rgb(35,31,32);stroke-width:0.38px;"/>
            </g>
            <g id="u" transform="matrix(1,0,0,1,110.944,109.449)">
                <path d="M0,10.781L0,4.609C0,3.737 -0.921,3.659 -1.858,3.32C-2.796,2.98 -4.892,2.481 -4.892,0.545C-4.892,-0.353 -3.774,-0.652 -3.116,-0.652C-2.458,-0.652 0.716,0.565 0.716,3.498L0.716,10.741C0.716,11.241 0.713,11.433 0.356,11.433C0,11.433 0,10.961 0,10.781Z" style="fill:rgb(167,169,172);fill-rule:nonzero;stroke:rgb(35,31,32);stroke-width:0.38px;"/>
            </g>
            <g transform="matrix(1,0,0,1,94.688,124.31)">
                <path d="M0,-3.428C0,-3.428 -0.457,-3.068 -0.678,-2.703C-0.902,-2.34 -1.013,-2.278 -0.969,-1.64C-0.924,-1.001 -0.924,-0.49 -1.08,-0.343C-1.235,-0.194 -1.481,0 -1.592,0C-1.703,0 -1.948,-0.194 -2.104,-0.343C-2.26,-0.49 -2.26,-1.001 -2.215,-1.64C-2.171,-2.278 -2.282,-2.34 -2.504,-2.703C-2.728,-3.068 -3.184,-3.428 -3.184,-3.428" style="fill:white;fill-rule:nonzero;stroke:rgb(35,31,32);stroke-width:0.38px;"/>
            </g>
            <g id="c" transform="matrix(0,-1,-1,0,93.17,114.879)">
                <path d="M-3.223,-3.224C-5.004,-3.224 -6.448,-1.781 -6.448,-0.001C-6.448,1.78 -5.004,3.223 -3.223,3.223C-1.443,3.223 0.001,1.78 0.001,-0.001C0.001,-1.781 -1.443,-3.224 -3.223,-3.224" style="fill:rgb(167,169,172);fill-rule:nonzero;"/>
            </g>
            <g transform="matrix(0,-1,-1,0,93.17,114.879)">
                <ellipse cx="-3.224" cy="-0.001" rx="3.225" ry="3.224" style="fill:none;stroke:rgb(35,31,32);stroke-width:0.38px;"/>
            </g>
            <g transform="matrix(0,-1,-1,0,93.1715,116.375)">
                <ellipse cx="-1.726" cy="0" rx="1.727" ry="1.726" style="fill:none;stroke:rgb(35,31,32);stroke-width:0.38px;"/>
            </g>
            <g transform="matrix(1,0,0,1,87.9136,124.254)">
                <path d="M0,-3.942C0,-3.942 -0.314,-3.582 -0.467,-3.217C-0.621,-2.855 -0.697,-2.221 -0.667,-1.584C-0.635,-0.945 -0.635,-0.434 -0.744,-0.287C-0.851,-0.137 -1.019,0 -1.096,0C-1.172,0 -1.341,-0.137 -1.448,-0.287C-1.556,-0.434 -1.556,-0.945 -1.524,-1.584C-1.493,-2.221 -1.57,-2.855 -1.724,-3.217C-1.877,-3.582 -2.191,-3.942 -2.191,-3.942" style="fill:white;fill-rule:nonzero;stroke:rgb(35,31,32);stroke-width:0.38px;"/>
            </g>
            <g id="b" transform="matrix(0,-1,-1,0,86.8922,115.565)">
                <path d="M-2.537,-2.538C-3.938,-2.538 -5.075,-1.402 -5.075,-0.001C-5.075,1.401 -3.938,2.537 -2.537,2.537C-1.136,2.537 0,1.401 0,-0.001C0,-1.402 -1.136,-2.538 -2.537,-2.538" style="fill:rgb(167,169,172);fill-rule:nonzero;"/>
            </g>
            <g transform="matrix(0,-1,-1,0,86.8922,115.565)">
                <circle cx="-2.537" cy="-0.001" r="2.537" style="fill:none;stroke:rgb(35,31,32);stroke-width:0.38px;"/>
            </g>
            <g transform="matrix(0,-1,-1,0,86.892,116.744)">
                <ellipse cx="-1.358" cy="-0.001" rx="1.358" ry="1.358" style="fill:none;stroke:rgb(35,31,32);stroke-width:0.38px;"/>
            </g>
            <g transform="matrix(1,0,0,1,77.8735,124.254)">
                <path d="M0,-3.942C0,-3.942 -0.314,-3.582 -0.467,-3.217C-0.621,-2.855 -0.698,-2.221 -0.666,-1.584C-0.637,-0.945 -0.637,-0.434 -0.744,-0.287C-0.851,-0.137 -1.02,0 -1.095,0C-1.172,0 -1.341,-0.137 -1.448,-0.287C-1.556,-0.434 -1.556,-0.945 -1.524,-1.584C-1.494,-2.221 -1.57,-2.855 -1.725,-3.217C-1.877,-3.582 -2.191,-3.942 -2.191,-3.942" style="fill:white;fill-rule:nonzero;stroke:rgb(35,31,32);stroke-width:0.38px;"/>
            </g>
            <g id="a" transform="matrix(0,-1,-1,0,76.8529,116.213)">
                <path d="M-2.214,-2.214C-3.437,-2.214 -4.427,-1.222 -4.427,0C-4.427,1.222 -3.437,2.214 -2.214,2.214C-0.991,2.214 -0.001,1.222 -0.001,0C-0.001,-1.222 -0.991,-2.214 -2.214,-2.214" style="fill:rgb(167,169,172);fill-rule:nonzero;"/>
            </g>
            <g transform="matrix(0,-1,-1,0,76.8529,116.213)">
                <ellipse cx="-2.214" cy="0" rx="2.213" ry="2.214" style="fill:none;stroke:rgb(35,31,32);stroke-width:0.38px;"/>
            </g>
            <g transform="matrix(0,-1,-1,0,76.8531,117.243)">
                <ellipse cx="-1.184" cy="0" rx="1.185" ry="1.184" style="fill:none;stroke:rgb(35,31,32);stroke-width:0.38px;"/>
            </g>
        </g>
    </g>
</svg>
